{
  "accessors": [
    {
      "bufferView": 2,
      "componentType": 5126,
      "count": 9810,
      "max": [
        30.981718063354492,
        57.34327697753906,
        22.319734573364258
      ],
      "min": [
        -30.981712341308594,
        -44.092594146728516,
        -24.764163970947266
      ],
      "type": "VEC3"
    },
    {
      "bufferView": 2,
      "byteOffset": 117720,
      "componentType": 5126,
      "count": 9810,
      "max": [
        0.9999982118606567,
        0.9999012351036072,
        0.9999979734420776
      ],
      "min": [
        -0.999998152256012,
        -0.9998633861541748,
        -0.9991294145584106
      ],
      "type": "VEC3"
    },
    {
      "bufferView": 3,
      "componentType": 5126,
      "count": 9810,
      "max": [
        1.0,
        1.0,
        1.0,
        1.0
      ],
      "min": [
        0.16078431904315948,
        0.16078431904315948,
        0.16078431904315948,
        1.0
      ],
      "type": "VEC4"
    },
    {
      "bufferView": 1,
      "componentType": 5126,
      "count": 9810,
      "max": [
        1.000000238418579,
        1.0000001192092896
      ],
      "min": [
        0.0,
        0.0
      ],
      "type": "VEC2"
    },
    {
      "bufferView": 0,
      "componentType": 5125,
      "count": 51312,
      "type": "SCALAR"
    },
    {
      "bufferView": 2,
      "byteOffset": 235440,
      "componentType": 5126,
      "count": 1364,
      "max": [
        -38.48191833496094,
        16.400854110717773,
        53.209503173828125
      ],
      "min": [
        -59.59150695800781,
        1.738001823425293,
        34.70644760131836
      ],
      "type": "VEC3"
    },
    {
      "bufferView": 2,
      "byteOffset": 251808,
      "componentType": 5126,
      "count": 1364,
      "max": [
        0.9996761679649353,
        0.7815760374069214,
        0.9966937899589539
      ],
      "min": [
        -0.9992851614952087,
        -0.6333615183830261,
        -0.9881207942962646
      ],
      "type": "VEC3"
    },
    {
      "bufferView": 1,
      "byteOffset": 78480,
      "componentType": 5126,
      "count": 1364,
      "max": [
        1.0000001192092896,
        1.0000001192092896
      ],
      "min": [
        0.0,
        0.0
      ],
      "type": "VEC2"
    },
    {
      "bufferView": 0,
      "byteOffset": 205248,
      "componentType": 5125,
      "count": 7104,
      "type": "SCALAR"
    },
    {
      "bufferView": 2,
      "byteOffset": 268176,
      "componentType": 5126,
      "count": 1364,
      "max": [
        -38.48191833496094,
        16.400854110717773,
        53.209503173828125
      ],
      "min": [
        -59.59150695800781,
        1.738001823425293,
        34.70644760131836
      ],
      "type": "VEC3"
    },
    {
      "bufferView": 2,
      "byteOffset": 284544,
      "componentType": 5126,
      "count": 1364,
      "max": [
        0.9996761679649353,
        0.7815760374069214,
        0.9966937899589539
      ],
      "min": [
        -0.9992851614952087,
        -0.6333615183830261,
        -0.9881207942962646
      ],
      "type": "VEC3"
    },
    {
      "bufferView": 1,
      "byteOffset": 89392,
      "componentType": 5126,
      "count": 1364,
      "max": [
        1.0000001192092896,
        1.0000001192092896
      ],
      "min": [
        0.0,
        0.0
      ],
      "type": "VEC2"
    },
    {
      "bufferView": 0,
      "byteOffset": 233664,
      "componentType": 5125,
      "count": 7104,
      "type": "SCALAR"
    },
    {
      "bufferView": 2,
      "byteOffset": 300912,
      "componentType": 5126,
      "count": 3916,
      "max": [
        -32.873573303222656,
        22.657751083374023,
        59.04621124267578
      ],
      "min": [
        -76.4539566040039,
        -5.7862091064453125,
        38.505462646484375
      ],
      "type": "VEC3"
    },
    {
      "bufferView": 2,
      "byteOffset": 347904,
      "componentType": 5126,
      "count": 3916,
      "max": [
        0.9998072385787964,
        0.9334854483604431,
        0.9996563792228699
      ],
      "min": [
        -0.9998058080673218,
        -0.9884180426597595,
        -0.8006019592285156
      ],
      "type": "VEC3"
    },
    {
      "bufferView": 1,
      "byteOffset": 100304,
      "componentType": 5126,
      "count": 3916,
      "max": [
        1.0000001192092896,
        1.0000001192092896
      ],
      "min": [
        0.025049524381756783,
        0.0
      ],
      "type": "VEC2"
    },
    {
      "bufferView": 0,
      "byteOffset": 262080,
      "componentType": 5125,
      "count": 20544,
      "type": "SCALAR"
    },
    {
      "bufferView": 2,
      "byteOffset": 394896,
      "componentType": 5126,
      "count": 7390,
      "max": [
        31.024154663085938,
        51.47904586791992,
        46.742916107177734
      ],
      "min": [
        -33.439170837402344,
        5.507249355316162,
        23.270797729492188
      ],
      "type": "VEC3"
    },
    {
      "bufferView": 2,
      "byteOffset": 483576,
      "componentType": 5126,
      "count": 7390,
      "max": [
        0.9983457922935486,
        0.9999713897705078,
        0.9999382495880127
      ],
      "min": [
        -0.9983454942703247,
        -0.9749450087547302,
        -0.9822171926498413
      ],
      "type": "VEC3"
    },
    {
      "bufferView": 1,
      "byteOffset": 131632,
      "componentType": 5126,
      "count": 7390,
      "max": [
        1.0,
        0.0
      ],
      "min": [
        1.0,
        0.0
      ],
      "type": "VEC2"
    },
    {
      "bufferView": 0,
      "byteOffset": 344256,
      "componentType": 5125,
      "count": 43014,
      "type": "SCALAR"
    },
    {
      "bufferView": 2,
      "byteOffset": 572256,
      "componentType": 5126,
      "count": 130,
      "max": [
        1.569516897201538,
        1.6150009632110596,
        8.334673881530762
      ],
      "min": [
        -25.295629501342773,
        -1.6112613677978516,
        7.860683441162109
      ],
      "type": "VEC3"
    },
    {
      "bufferView": 2,
      "byteOffset": 573816,
      "componentType": 5126,
      "count": 130,
      "max": [
        0.3324489891529083,
        0.24105362594127655,
        0.996895432472229
      ],
      "min": [
        -0.3324489891529083,
        -0.24970149993896484,
        0.9431158900260925
      ],
      "type": "VEC3"
    },
    {
      "bufferView": 1,
      "byteOffset": 190752,
      "componentType": 5126,
      "count": 130,
      "max": [
        1.000000238418579,
        1.0
      ],
      "min": [
        0.0,
        0.9375
      ],
      "type": "VEC2"
    },
    {
      "bufferView": 0,
      "byteOffset": 516312,
      "componentType": 5125,
      "count": 192,
      "type": "SCALAR"
    },
    {
      "bufferView": 2,
      "byteOffset": 575376,
      "componentType": 5126,
      "count": 334,
      "max": [
        7.720333099365234,
        5.930595874786377,
        8.334673881530762
      ],
      "min": [
        -31.44644546508789,
        -5.521456718444824,
        -1.5061616897583008
      ],
      "type": "VEC3"
    },
    {
      "bufferView": 2,
      "byteOffset": 579384,
      "componentType": 5126,
      "count": 334,
      "max": [
        1.0,
        0.7272364497184753,
        0.9984822869300842
      ],
      "min": [
        -1.0,
        -0.7055045962333679,
        -0.0980171337723732
      ],
      "type": "VEC3"
    },
    {
      "bufferView": 1,
      "byteOffset": 191792,
      "componentType": 5126,
      "count": 334,
      "max": [
        1.000000238418579,
        0.9375
      ],
      "min": [
        0.0,
        0.4375000596046448
      ],
      "type": "VEC2"
    },
    {
      "bufferView": 0,
      "byteOffset": 517080,
      "componentType": 5125,
      "count": 1512,
      "type": "SCALAR"
    }
  ],
  "asset": {
    "extras": {
      "author": "Mohammad.Akkad (https://sketchfab.com/Mohammad.Akkad)",
      "license": "CC-BY-4.0 (http://creativecommons.org/licenses/by/4.0/)",
      "source": "https://sketchfab.com/3d-models/la-casa-de-papel-salvador-dali-mask-85beed593d2c49259c15b56be68e1d5c",
      "title": "la casa de papel salvador dali mask"
    },
    "generator": "Sketchfab-12.66.0",
    "version": "2.0"
  },
  "bufferViews": [
    {
      "buffer": 0,
      "byteLength": 523128,
      "name": "floatBufferViews",
      "target": 34963
    },
    {
      "buffer": 0,
      "byteLength": 194464,
      "byteOffset": 523128,
      "byteStride": 8,
      "name": "floatBufferViews",
      "target": 34962
    },
    {
      "buffer": 0,
      "byteLength": 583392,
      "byteOffset": 717592,
      "byteStride": 12,
      "name": "floatBufferViews",
      "target": 34962
    },
    {
      "buffer": 0,
      "byteLength": 156960,
      "byteOffset": 1300984,
      "byteStride": 16,
      "name": "floatBufferViews",
      "target": 34962
    }
  ],
  "buffers": [
    {
      "byteLength": 1457944,
      "uri": "scene.bin"
    }
  ],
  "materials": [
    {
      "doubleSided": true,
      "name": "Material.002",
      "pbrMetallicRoughness": {
        "baseColorFactor": [
          0.530719,
          0.331394,
          0.135012,
          1.0
        ],
        "metallicFactor": 0.0,
        "roughnessFactor": 0.9195928482008696
      }
    },
    {
      "doubleSided": true,
      "name": "02_-_Default",
      "pbrMetallicRoughness": {
        "baseColorFactor": [
          0.00392157,
          0.00392157,
          0.00392157,
          1.0
        ],
        "metallicFactor": 0.0,
        "roughnessFactor": 0.9991706889148859
      }
    },
    {
      "doubleSided": true,
      "name": "03_-_Default",
      "pbrMetallicRoughness": {
        "baseColorFactor": [
          0.972549,
          0.972549,
          0.972549,
          1.0
        ],
        "metallicFactor": 0.0,
        "roughnessFactor": 0.8843437809511219
      }
    }
  ],
  "meshes": [
    {
      "name": "Plane002_Material.002_0",
      "primitives": [
        {
          "attributes": {
            "COLOR_0": 2,
            "NORMAL": 1,
            "POSITION": 0,
            "TEXCOORD_0": 3
          },
          "indices": 4,
          "material": 0,
          "mode": 4
        }
      ]
    },
    {
      "name": "Plane003_02 - Default_0",
      "primitives": [
        {
          "attributes": {
            "NORMAL": 6,
            "POSITION": 5,
            "TEXCOORD_0": 7
          },
          "indices": 8,
          "material": 1,
          "mode": 4
        }
      ]
    },
    {
      "name": "Plane005_02 - Default_0",
      "primitives": [
        {
          "attributes": {
            "NORMAL": 10,
            "POSITION": 9,
            "TEXCOORD_0": 11
          },
          "indices": 12,
          "material": 1,
          "mode": 4
        }
      ]
    },
    {
      "name": "Plane006_02 - Default_0",
      "primitives": [
        {
          "attributes": {
            "NORMAL": 14,
            "POSITION": 13,
            "TEXCOORD_0": 15
          },
          "indices": 16,
          "material": 1,
          "mode": 4
        }
      ]
    },
    {
      "name": "Plane007_02 - Default_0",
      "primitives": [
        {
          "attributes": {
            "NORMAL": 18,
            "POSITION": 17,
            "TEXCOORD_0": 19
          },
          "indices": 20,
          "material": 1,
          "mode": 4
        }
      ]
    },
    {
      "name": "Sphere001_02 - Default_0",
      "primitives": [
        {
          "attributes": {
            "NORMAL": 22,
            "POSITION": 21,
            "TEXCOORD_0": 23
          },
          "indices": 24,
          "material": 1,
          "mode": 4
        }
      ]
    },
    {
      "name": "Sphere001_03 - Default_0",
      "primitives": [
        {
          "attributes": {
            "NORMAL": 26,
            "POSITION": 25,
            "TEXCOORD_0": 27
          },
          "indices": 28,
          "material": 2,
          "mode": 4
        }
      ]
    }
  ],
  "nodes": [
    {
      "children": [
        1
      ],
      "matrix": [
        1.0,
        0.0,
        0.0,
        0.0,
        0.0,
        2.220446049250313e-16,
        -1.0,
        0.0,
        0.0,
        1.0,
        2.220446049250313e-16,
        0.0,
        0.0,
        0.0,
        0.0,
        1.0
      ],
      "name": "Sketchfab_model"
    },
    {
      "children": [
        2
      ],
      "matrix": [
        0.009999999776482582,
        0.0,
        0.0,
        0.0,
        0.0,
        0.0,
        0.009999999776482582,
        0.0,
        0.0,
        -0.009999999776482582,
        0.0,
        0.0,
        0.0,
        0.0,
        0.0,
        1.0
      ],
      "name": "1.fbx"
    },
    {
      "children": [
        3
      ],
      "name": "RootNode"
    },
    {
      "children": [
        4,
        5,
        7,
        9,
        11,
        13
      ],
      "matrix": [
        2.5399999618530273,
        0.0,
        0.0,
        0.0,
        0.0,
        -4.138185194403211e-07,
        -2.5399999618529936,
        0.0,
        0.0,
        2.5399999618529936,
        -4.138185194403211e-07,
        0.0,
        0.0,
        0.0,
        0.0,
        1.0
      ],
      "name": "Plane002"
    },
    {
      "mesh": 0,
      "name": "Plane002_Material.002_0"
    },
    {
      "children": [
        6
      ],
      "matrix": [
        1.0000003576278647,
        8.940698492664913e-08,
        1.7306136134058084e-14,
        0.0,
        -8.940698492665056e-08,
        1.0000003576278576,
        1.192093321833451e-07,
        0.0,
        -6.647992980074665e-15,
        -1.1920933218334616e-07,
        1.0000003576278615,
        0.0,
        65.64732360839844,
        18.13732147216797,
        -48.064144134521484,
        1.0
      ],
      "name": "Plane003"
    },
    {
      "mesh": 1,
      "name": "Plane003_02 - Default_0"
    },
    {
      "children": [
        8
      ],
      "matrix": [
        -1.0000003576278669,
        -5.960465188081287e-08,
        -1.6181126899971146e-14,
        -0.0,
        -5.960465188081465e-08,
        1.0000003576278558,
        1.509958530981429e-07,
        -0.0,
        -7.181074859279194e-15,
        -1.509958530981436e-07,
        1.0000003576278576,
        -0.0,
        -65.46112823486328,
        18.137313842773438,
        -48.06413269042969,
        1.0
      ],
      "name": "Plane005"
    },
    {
      "mesh": 2,
      "name": "Plane005_02 - Default_0"
    },
    {
      "children": [
        10
      ],
      "matrix": [
        1.0000003576278647,
        8.940698492664913e-08,
        1.7306136134058084e-14,
        0.0,
        -8.940698492665056e-08,
        1.0000003576278576,
        1.192093321833451e-07,
        0.0,
        -6.647992980074665e-15,
        -1.1920933218334616e-07,
        1.0000003576278615,
        0.0,
        54.66378402709961,
        -16.077232360839844,
        -48.06413269042969,
        1.0
      ],
      "name": "Plane006"
    },
    {
      "mesh": 3,
      "name": "Plane006_02 - Default_0"
    },
    {
      "children": [
        12
      ],
      "matrix": [
        1.0000003576278647,
        8.940698492664913e-08,
        1.7306136134058084e-14,
        0.0,
        -8.940698492665056e-08,
        1.0000003576278576,
        1.192093321833451e-07,
        0.0,
        -6.647992980074665e-15,
        -1.1920933218334616e-07,
        1.0000003576278615,
        0.0,
        1.2075104713439941,
        7.376401901245117,
        -48.06413269042969,
        1.0
      ],
      "name": "Plane007"
    },
    {
      "mesh": 4,
      "name": "Plane007_02 - Default_0"
    },
    {
      "children": [
        14,
        15
      ],
      "matrix": [
        1.1548004150390578,
        1.0324719458196488e-07,
        8.536712844764673e-15,
        0.0,
        -1.0324719458196514e-07,
        1.1548004150390496,
        1.376629370497536e-07,
        0.0,
        3.7713118694626924e-15,
        -1.376629370497538e-07,
        1.1548004150390543,
        0.0,
        13.699462890625,
        11.778489112854004,
        -8.055207252502441,
        1.0
      ],
      "name": "Sphere001"
    },
    {
      "mesh": 5,
      "name": "Sphere001_02 - Default_0"
    },
    {
      "mesh": 6,
      "name": "Sphere001_03 - Default_0"
    }
  ],
  "scene": 0,
  "scenes": [
    {
      "name": "Sketchfab_Scene",
      "nodes": [
        0
      ]
    }
  ]
}
