{
  "accessors": [
    {
      "bufferView": 2,
      "componentType": 5126,
      "count": 2354,
      "max": [
        0.11778470873832703,
        0.27736896276474,
        0.049968134611845016
      ],
      "min": [
        -0.11834787577390671,
        0.00010566849232418463,
        -0.048742152750492096
      ],
      "type": "VEC3"
    },
    {
      "bufferView": 2,
      "byteOffset": 28248,
      "componentType": 5126,
      "count": 2354,
      "max": [
        0.9856492877006531,
        0.9998358488082886,
        0.9988527297973633
      ],
      "min": [
        -0.9996126294136047,
        -0.9996569752693176,
        -0.9997231960296631
      ],
      "type": "VEC3"
    },
    {
      "bufferView": 3,
      "componentType": 5126,
      "count": 2354,
      "max": [
        0.9989718198776245,
        0.9987654089927673,
        0.9960256218910217,
        1.0
      ],
      "min": [
        -0.9997811317443848,
        -0.9998635649681091,
        -0.9858325719833374,
        -1.0
      ],
      "type": "VEC4"
    },
    {
      "bufferView": 1,
      "componentType": 5126,
      "count": 2354,
      "max": [
        0.9981328248977661,
        0.9724725484848022
      ],
      "min": [
        0.0009746546274982393,
        0.0009746557334437966
      ],
      "type": "VEC2"
    },
    {
      "bufferView": 1,
      "byteOffset": 18832,
      "componentType": 5126,
      "count": 2354,
      "max": [
        0.9981328248977661,
        0.9724725484848022
      ],
      "min": [
        0.0009746546274982393,
        0.0009746557334437966
      ],
      "type": "VEC2"
    },
    {
      "bufferView": 0,
      "componentType": 5125,
      "count": 9012,
      "type": "SCALAR"
    }
  ],
  "asset": {
    "extras": {
      "author": "David Wigforss (https://sketchfab.com/dwigfor)",
      "license": "CC-BY-NC-4.0 (http://creativecommons.org/licenses/by-nc/4.0/)",
      "source": "https://sketchfab.com/3d-models/joker-mask-6b00269a547f4f0bbc5e74ce3a7bf12a",
      "title": "Joker Mask"
    },
    "generator": "Sketchfab-12.66.0",
    "version": "2.0"
  },
  "bufferViews": [
    {
      "buffer": 0,
      "byteLength": 36048,
      "name": "floatBufferViews",
      "target": 34963
    },
    {
      "buffer": 0,
      "byteLength": 37664,
      "byteOffset": 36048,
      "byteStride": 8,
      "name": "floatBufferViews",
      "target": 34962
    },
    {
      "buffer": 0,
      "byteLength": 56496,
      "byteOffset": 73712,
      "byteStride": 12,
      "name": "floatBufferViews",
      "target": 34962
    },
    {
      "buffer": 0,
      "byteLength": 37664,
      "byteOffset": 130208,
      "byteStride": 16,
      "name": "floatBufferViews",
      "target": 34962
    }
  ],
  "buffers": [
    {
      "byteLength": 167872,
      "uri": "scene.bin"
    }
  ],
  "images": [
    {
      "uri": "textures/MAT_Mask_DC_Joker_baseColor.jpeg"
    },
    {
      "uri": "textures/MAT_Mask_DC_Joker_normal.png"
    }
  ],
  "materials": [
    {
      "doubleSided": true,
      "name": "MAT_Mask_DC_Joker",
      "normalTexture": {
        "index": 1
      },
      "pbrMetallicRoughness": {
        "baseColorTexture": {
          "index": 0
        },
        "metallicFactor": 0.0,
        "roughnessFactor": 0.9577051494623774
      }
    }
  ],
  "meshes": [
    {
      "name": "geo1_MAT_Mask_DC_Joker_0",
      "primitives": [
        {
          "attributes": {
            "NORMAL": 1,
            "POSITION": 0,
            "TANGENT": 2,
            "TEXCOORD_0": 3,
            "TEXCOORD_1": 4
          },
          "indices": 5,
          "material": 0,
          "mode": 4
        }
      ]
    }
  ],
  "nodes": [
    {
      "children": [
        1
      ],
      "matrix": [
        1.0,
        0.0,
        0.0,
        0.0,
        0.0,
        2.220446049250313e-16,
        -1.0,
        0.0,
        0.0,
        1.0,
        2.220446049250313e-16,
        0.0,
        0.0,
        0.0,
        0.0,
        1.0
      ],
      "name": "Sketchfab_model"
    },
    {
      "children": [
        2
      ],
      "matrix": [
        1.0,
        0.0,
        0.0,
        0.0,
        0.0,
        0.0,
        1.0,
        0.0,
        0.0,
        -1.0,
        0.0,
        0.0,
        0.0,
        0.0,
        0.0,
        1.0
      ],
      "name": "mesh.fbx"
    },
    {
      "children": [
        3
      ],
      "name": "RootNode"
    },
    {
      "children": [
        4
      ],
      "name": "geo1"
    },
    {
      "mesh": 0,
      "name": "geo1_MAT_Mask_DC_Joker_0"
    }
  ],
  "samplers": [
    {
      "magFilter": 9729,
      "minFilter": 9987,
      "wrapS": 10497,
      "wrapT": 10497
    }
  ],
  "scene": 0,
  "scenes": [
    {
      "name": "Sketchfab_Scene",
      "nodes": [
        0
      ]
    }
  ],
  "textures": [
    {
      "sampler": 0,
      "source": 0
    },
    {
      "sampler": 0,
      "source": 1
    }
  ]
}
